<svg width="125" height="34" viewBox="0 0 125 34" fill="none" xmlns="http://www.w3.org/2000/svg">
<path d="M11.64 33.28C9.58667 33.28 7.74667 32.9467 6.12 32.28C4.49333 31.6133 3.18667 30.6267 2.2 29.32C1.24 28.0133 0.733333 26.44 0.68 24.6H7.96C8.06667 25.64 8.42667 26.44 9.04 27C9.65333 27.5333 10.4533 27.8 11.44 27.8C12.4533 27.8 13.2533 27.5733 13.84 27.12C14.4267 26.64 14.72 25.9867 14.72 25.16C14.72 24.4667 14.48 23.8933 14 23.44C13.5467 22.9867 12.9733 22.6133 12.28 22.32C11.6133 22.0267 10.6533 21.6933 9.4 21.32C7.58667 20.76 6.10667 20.2 4.96 19.64C3.81333 19.08 2.82667 18.2533 2 17.16C1.17333 16.0667 0.76 14.64 0.76 12.88C0.76 10.2667 1.70667 8.22667 3.6 6.76C5.49333 5.26667 7.96 4.52 11 4.52C14.0933 4.52 16.5867 5.26667 18.48 6.76C20.3733 8.22667 21.3867 10.28 21.52 12.92H14.12C14.0667 12.0133 13.7333 11.3067 13.12 10.8C12.5067 10.2667 11.72 10 10.76 10C9.93333 10 9.26667 10.2267 8.76 10.68C8.25333 11.1067 8 11.7333 8 12.56C8 13.4667 8.42667 14.1733 9.28 14.68C10.1333 15.1867 11.4667 15.7333 13.28 16.32C15.0933 16.9333 16.56 17.52 17.68 18.08C18.8267 18.64 19.8133 19.4533 20.64 20.52C21.4667 21.5867 21.88 22.96 21.88 24.64C21.88 26.24 21.4667 27.6933 20.64 29C19.84 30.3067 18.6667 31.3467 17.12 32.12C15.5733 32.8933 13.7467 33.28 11.64 33.28ZM38.5294 27.2V33H35.0494C32.5694 33 30.636 32.4 29.2494 31.2C27.8627 29.9733 27.1694 27.9867 27.1694 25.24V16.36H24.4494V10.68H27.1694V5.24H34.0094V10.68H38.4894V16.36H34.0094V25.32C34.0094 25.9867 34.1694 26.4667 34.4894 26.76C34.8094 27.0533 35.3427 27.2 36.0894 27.2H38.5294ZM45.7794 8.36C44.5794 8.36 43.5927 8.01333 42.8194 7.32C42.0727 6.6 41.6994 5.72 41.6994 4.68C41.6994 3.61333 42.0727 2.73333 42.8194 2.04C43.5927 1.32 44.5794 0.959998 45.7794 0.959998C46.9527 0.959998 47.9127 1.32 48.6594 2.04C49.4327 2.73333 49.8194 3.61333 49.8194 4.68C49.8194 5.72 49.4327 6.6 48.6594 7.32C47.9127 8.01333 46.9527 8.36 45.7794 8.36ZM49.1794 10.68V33H42.3394V10.68H49.1794ZM60.9763 3.4V33H54.1363V3.4H60.9763ZM83.4131 28.04H72.9331L71.2531 33H64.0931L74.2531 4.92H82.1731L92.3331 33H85.0931L83.4131 28.04ZM81.6531 22.76L78.1731 12.48L74.7331 22.76H81.6531ZM102.265 14.4C103.065 13.1733 104.065 12.2133 105.265 11.52C106.465 10.8 107.799 10.44 109.265 10.44V17.68H107.385C105.679 17.68 104.399 18.0533 103.545 18.8C102.692 19.52 102.265 20.8 102.265 22.64V33H95.4253V10.68H102.265V14.4ZM124.975 27.2V33H121.495C119.015 33 117.081 32.4 115.695 31.2C114.308 29.9733 113.615 27.9867 113.615 25.24V16.36H110.895V10.68H113.615V5.24H120.455V10.68H124.935V16.36H120.455V25.32C120.455 25.9867 120.615 26.4667 120.935 26.76C121.255 27.0533 121.788 27.2 122.535 27.2H124.975Z" fill="white"/>
</svg>
